<svg xmlns="http://www.w3.org/2000/svg" width="258" height="255" fill="none"><g filter="url(#a)"><path fill="#FFD3FD" d="M254 125a125 125 0 1 1-250 0 125 125 0 0 1 250 0Z"/><path fill="#000" d="M244.6 125a115.7 115.7 0 1 1-231.5 0 115.7 115.7 0 0 1 231.5 0Z"/><path fill="#fff" stroke="#fff" d="M234.9 125a106 106 0 1 1-212 0 106 106 0 0 1 212 0Z"/><path fill="#FFD3FD" fill-rule="evenodd" d="M66.8 198.1V170h122.3v28H66.8Zm0-29.1v-42.1a15.7 15.7 0 0 0 31.5 0V79.5a50 50 0 0 1 18.5-3.6h5.6v17.5h1V75.9h4.6v17.5h1V75.9h4.5v17.5h1V75.9h4.6c6.5 0 12.8 1.3 18.5 3.6v47.4a15.7 15.7 0 0 0 31.5 0v42H66.8Zm90.8-89.5V60.2a15.7 15.7 0 0 1 31.5 0v65.7a50 50 0 0 0-31.5-46.4Zm-59.3 0a50 50 0 0 0-31.5 46.4V60.2a15.7 15.7 0 0 1 31.5 0v19.3Zm-15.7-24A6.5 6.5 0 0 0 76 62v15a6.5 6.5 0 1 0 13 0V62c0-3.5-3-6.4-6.5-6.4Zm84.2 6.5a6.5 6.5 0 0 1 13 0v15a6.5 6.5 0 0 1-13 0V62ZM128 137a1.9 1.9 0 1 1-3.8 0 1.9 1.9 0 0 1 3.8 0Zm5.5 1.9a1.9 1.9 0 1 0 0-3.7 1.9 1.9 0 0 0 0 3.7Z" clip-rule="evenodd"/><circle cx="170.5" cy="125.9" r="14.8" fill="#000"/><circle cx="85.4" cy="125.9" r="14.8" fill="#000"/><path fill="#fff" d="m163.1 126 .6 3.4 2.2-2.7-1.3 3.3 3.3-1.3-2.7 2.2 3.5.6-3.5.5 2.7 2.3-3.3-1.3 1.3 3.3-2.2-2.8-.6 3.5-.5-3.5-2.2 2.8 1.2-3.3-3.3 1.3 2.8-2.3-3.5-.5 3.5-.6-2.8-2.2 3.3 1.3-1.2-3.3 2.2 2.7.5-3.5ZM89 126l.6 3.4 2.2-2.7-1.2 3.3 3.3-1.3-2.8 2.2 3.5.6-3.5.5 2.8 2.3-3.3-1.3 1.2 3.3-2.2-2.8-.5 3.5-.6-3.5-2.2 2.8 1.3-3.3-3.3 1.3L87 132l-3.5-.5 3.5-.6-2.7-2.2 3.3 1.3-1.3-3.3 2.2 2.7.6-3.5Z"/></g><defs><filter id="a" width="258" height="258" x="0" y="0" color-interpolation-filters="sRGB" filterUnits="userSpaceOnUse"><feFlood flood-opacity="0" result="BackgroundImageFix"/><feColorMatrix in="SourceAlpha" result="hardAlpha" values="0 0 0 0 0 0 0 0 0 0 0 0 0 0 0 0 0 0 127 0"/><feOffset dy="4"/><feGaussianBlur stdDeviation="2"/><feComposite in2="hardAlpha" operator="out"/><feColorMatrix values="0 0 0 0 0 0 0 0 0 0 0 0 0 0 0 0 0 0 0.25 0"/><feBlend in2="BackgroundImageFix" result="effect1_dropShadow_25_2"/><feBlend in="SourceGraphic" in2="effect1_dropShadow_25_2" result="shape"/></filter></defs></svg>